# Blender 5.0.0
# www.blender.org
mtllib arrow_Bonkers.mtl
o Plane
v -0.250000 0.000000 1.000000
v -0.250000 0.000000 -1.000000
v 0.250000 0.000000 -1.000000
v 0.250000 0.000000 1.000000
v 0.000000 0.000000 2.000000
v -0.500000 0.000000 1.000000
v 0.500000 0.000000 1.000000
vn -0.0000 1.0000 -0.0000
vt 0.000000 0.000000
vt 0.250000 0.000000
vt 0.250000 1.000000
vt 0.000000 1.000000
vt 0.500000 0.000000
vt 0.500000 0.500000
vt 0.000000 0.500000
s 0
usemtl arrowMaterial
f 1/1/1 4/2/1 3/3/1 2/4/1
f 5/5/1 7/6/1 6/7/1
